<?xml version="1.0" encoding="UTF-8" standalone="no"?>
<svg
   xmlns:dc="http://purl.org/dc/elements/1.1/"
   xmlns:cc="http://creativecommons.org/ns#"
   xmlns:rdf="http://www.w3.org/1999/02/22-rdf-syntax-ns#"
   xmlns:svg="http://www.w3.org/2000/svg"
   xmlns="http://www.w3.org/2000/svg"
   xmlns:sodipodi="http://sodipodi.sourceforge.net/DTD/sodipodi-0.dtd"
   xmlns:inkscape="http://www.inkscape.org/namespaces/inkscape"
   width="210mm"
   height="297mm"
   viewBox="0 0 210 297"
   version="1.1"
   id="svg8"
   inkscape:version="1.0.1 (3bc2e813f5, 2020-09-07)"
   sodipodi:docname="simplejamHeart.svg">
  <defs
     id="defs2">
    <rect
       x="-15.163942"
       y="70.941037"
       width="202.79438"
       height="21.655701"
       id="rect16" />
  </defs>
  <sodipodi:namedview
     id="base"
     pagecolor="#ffffff"
     bordercolor="#666666"
     borderopacity="1.0"
     inkscape:pageopacity="0.0"
     inkscape:pageshadow="2"
     inkscape:zoom="0.35"
     inkscape:cx="400"
     inkscape:cy="560"
     inkscape:document-units="mm"
     inkscape:current-layer="layer1"
     inkscape:document-rotation="0"
     showgrid="false"
     inkscape:window-width="1528"
     inkscape:window-height="836"
     inkscape:window-x="72"
     inkscape:window-y="27"
     inkscape:window-maximized="1"
     showguides="false"
     inkscape:snap-bbox="false" />
  <metadata
     id="metadata5">
    <rdf:RDF>
      <cc:Work
         rdf:about="">
        <dc:format>image/svg+xml</dc:format>
        <dc:type
           rdf:resource="http://purl.org/dc/dcmitype/StillImage" />
        <dc:title />
      </cc:Work>
    </rdf:RDF>
  </metadata>
  <g
     inkscape:label="Layer 1"
     inkscape:groupmode="layer"
     id="layer1">
    <path
       style="fill:#d40000;stroke:#000000;stroke-width:0.178832px;stroke-linecap:butt;stroke-linejoin:miter;stroke-opacity:1"
       d="m 87.631467,258.0817 c -1.880789,-1.4868 -4.22149,-1.55634 -6.172921,-2.60791 -0.544011,-0.29315 -0.930642,-1.0983 -1.489107,-1.32401 -0.574649,-0.23225 -1.194233,0.0879 -1.786919,0 -3.615047,-0.5357 -7.637418,-2.6235 -11.019384,-4.4134 -1.065957,-0.56416 -1.702691,-2.24422 -2.6804,-3.08939 -0.542339,-0.46882 -1.254512,-0.38956 -1.786942,-0.88269 -0.591519,-0.54786 -1.771693,-2.72278 -2.680375,-3.53071 -0.08513,-0.0756 -0.198558,0 -0.297836,0 -0.694919,-0.58846 -1.549334,-0.88377 -2.084753,-1.76537 -0.420013,-0.69158 -0.262859,-1.85903 -0.595623,-2.64803 -0.379415,-0.89961 -1.227931,-1.10267 -1.786942,-1.76537 -1.647954,-1.95366 -2.913848,-4.60577 -4.467316,-6.6201 -3.403059,-4.41263 0.511267,2.37901 -2.978211,-3.53071 -1.739765,-2.94645 -3.155192,-6.44823 -5.038858,-9.22053 -0.315002,-0.4636 -0.836104,-0.4879 -1.191269,-0.88264 -1.945059,-2.1618 -3.672587,-6.28853 -5.956449,-8.82685 -1.035497,-1.15086 -2.36077,-1.73305 -3.276021,-3.08938 -0.80599,-1.19441 -0.801795,-2.95349 -1.489106,-3.97203 -1.171183,-1.73561 -3.168043,-2.91587 -4.467316,-4.41341 -1.058478,-1.21999 -1.543936,-2.84303 -2.062774,-4.38083 -0.620255,-1.83838 -2.299535,-3.84902 -3.276022,-5.29607 -1.693013,-2.50885 -2.799868,-5.45374 -4.169505,-8.38547 -1.511369,-3.23509 -3.281158,-6.63529 -4.467317,-10.15083 -1.341489,-3.9759 -1.746407,-8.20528 -2.6804008,-12.35752 C 7.6437992,145.65518 6.1892493,136.73857 5.2623823,127.124 4.3384504,117.53984 4.0710881,108.58365 4.0710881,98.878202 c 0,-4.069226 -0.6788916,-9.774157 0.5956472,-13.551653 0.7345556,-2.177085 1.7881983,-3.002639 2.9782116,-4.413417 1.3353791,-1.583111 2.0433628,-3.878563 3.5738581,-5.296087 2.543008,-2.355302 5.32255,-4.452412 7.743366,-7.061444 0.627052,-0.675806 1.117185,-1.627759 1.786915,-2.206701 0.542339,-0.468819 1.225361,-0.466588 1.786943,-0.882687 1.464668,-1.08523 2.779507,-3.126001 4.169505,-4.4134 1.985794,-1.839218 1.323428,-0.735356 2.978212,-2.2067 0.575093,-0.511342 0.891439,-1.76386 1.489106,-2.2067 1.259397,-0.933147 1.242873,0.163351 2.978211,-1.765356 0.612138,-0.680348 6.506607,-1.653605 7.147717,-1.765375 3.07974,-0.536917 5.859665,-2.297534 8.934634,-2.648044 1.501682,-0.171174 2.408157,-0.611565 3.871695,-0.882669 5.389654,-0.998374 16.336642,-0.05909 21.420813,0.882669 2.523349,0.467411 4.630798,3.484575 6.849878,4.854763 0.755665,0.466586 1.650362,0.340145 2.38257,0.882668 2.348044,1.739775 4.380099,4.915682 6.552094,7.061444 0.584072,0.577018 1.456874,-0.02387 2.084723,0.441344 0.749166,0.555095 1.47232,3.064519 2.084759,3.972076 2.990383,4.431368 5.587184,9.209466 6.849894,15.446898 0.84467,4.172329 0.29782,9.780407 0.29782,14.122908 0,0.673995 0,-1.347995 0,-2.02199 0,-1.324025 0,-2.64805 0,-3.972075 0,-3.218311 2.56834,-11.805162 3.87169,-14.122887 0.26964,-0.479484 0.6845,-0.782101 0.89347,-1.324013 0.20307,-0.526649 0.0282,-1.308886 0.2978,-1.765376 0.47141,-0.798375 1.28075,-1.015216 1.78695,-1.765354 1.36298,-2.019797 2.01361,-4.902883 3.27602,-7.061444 2.01072,-3.438077 4.91117,-6.198008 6.8499,-9.709488 0.50683,-0.917966 0.68445,-2.171422 1.19128,-3.089388 2.06303,-3.736617 7.28958,-8.823815 10.42376,-10.150831 0.66818,-0.282909 1.41058,0.249765 2.08475,0 0.4307,-0.159567 0.75788,-0.739966 1.19127,-0.882688 1.96749,-0.647922 4.52883,0 6.55208,0 4.74235,0 9.2085,-0.453163 13.69978,1.765375 1.01491,0.501333 2.20852,0.163592 3.27605,0.88267 2.52859,1.703237 1.3365,1.450472 3.27602,2.648043 2.96345,1.829801 6.3605,1.844093 9.23247,3.972076 1.72557,1.278553 4.16145,3.589432 5.65861,5.296086 3.3347,3.801323 -0.21366,0.553577 2.6804,4.413401 0.63476,0.846586 1.61104,1.153727 2.08476,2.206699 0.32109,0.713739 0.59563,1.471133 0.89345,2.206701 0.39709,1.324019 0.64892,2.766504 1.19127,3.972055 4.11028,9.136499 10.17182,16.766263 12.80635,27.363125 1.59681,6.422824 2.2206,14.006664 2.97821,20.742994 1.17154,10.41663 -0.82864,11.43288 -5.06296,19.41898 -1.69203,3.19126 -2.64579,7.64652 -4.16953,11.0335 -3.19493,7.10178 1.26384,-5.66612 -2.68037,4.85475 -1.38507,3.69456 -1.41652,5.25118 -2.6804,8.82682 -1.98777,5.62353 -4.03153,11.63503 -6.55207,16.77092 -1.22504,2.49616 -2.70586,4.9114 -3.87167,7.50279 -0.93213,2.07196 -1.35062,5.02241 -2.38259,7.06145 -6.11066,12.07377 -0.17986,-0.60593 -4.16948,6.6201 -0.81965,1.48455 -1.1695,3.49843 -2.08476,4.85476 -0.81069,1.20136 -4.35599,5.58923 -5.3608,6.6201 -0.73005,0.74898 -1.61162,1.11255 -2.38256,1.76538 -4.85392,4.11029 -8.99055,9.01995 -14.29543,11.91618 -7.72312,4.21648 -15.7061,6.54841 -22.9016,11.87982 -1.58811,1.1767 -2.44724,3.97682 -3.87167,5.29609 -1.4021,1.2986 -2.76071,2.66726 -4.16951,3.97207 -0.82911,0.76792 -1.86686,0.96168 -2.68039,1.76538 -1.14812,1.13425 -2.0536,3.27158 -2.97822,4.4134 -1.12623,1.39079 -2.89711,2.52788 -3.87166,3.97207 -0.2531,0.37507 -0.31615,0.99267 -0.59565,1.32401 -1.54373,1.8301 -5.247141,1.36178 -7.147719,2.20671 -0.816465,0.36297 -5.096719,1.07676 -5.658611,0.88268 -0.648589,-0.22403 -1.083255,-1.14847 -1.624883,-1.72269 z"
       id="path12" />
    <text
       xml:space="preserve"
       id="text14"
       style="font-style:normal;font-weight:normal;font-size:5.76642133px;line-height:1.25;font-family:sans-serif;text-align:center;white-space:pre;shape-inside:url(#rect16);fill:#000000;fill-opacity:1;stroke:none;"
       x="25.316202"
       y="0"
       transform="matrix(2.5688201,0,0,3.3569006,-123.0034,-118.63775)"><tspan
         x="72.155221"
         y="76.043338"><tspan
           style="font-size:5.76642px;text-align:center;text-anchor:middle">JAMstack!</tspan></tspan></text>
  </g>
</svg>
